<svg width="84" height="24" viewBox="0 0 84 24" fill="none" xmlns="http://www.w3.org/2000/svg">
<path d="M18.2645 3H5.73548C4.22461 3 3 4.22461 3 5.73548V18.2649C3 19.7754 4.22461 21 5.73548 21H18.2645C19.7754 21 21 19.7754 21 18.2649V5.73548C21 4.22461 19.7754 3 18.2645 3ZM9.92391 19.1891H7.61386V11.7581H9.92391V19.1891ZM10.1114 9.5539C10.1068 9.59765 10.1006 9.64099 10.0918 9.68432C10.0831 9.72766 10.0727 9.77016 10.0597 9.81224C10.0468 9.85433 10.0322 9.89599 10.0152 9.93641C9.9985 9.97724 9.97974 10.0168 9.95891 10.056C9.93808 10.0947 9.91558 10.1327 9.89099 10.1693C9.86683 10.2056 9.84058 10.241 9.81224 10.2752C9.78474 10.3093 9.75516 10.3418 9.72391 10.3727C9.69265 10.4039 9.66015 10.4335 9.6264 10.4614C9.59224 10.4893 9.55682 10.5156 9.52015 10.5402C9.48348 10.5648 9.44598 10.5873 9.40681 10.6081C9.36806 10.6285 9.32806 10.6473 9.28764 10.6643C9.24723 10.681 9.20556 10.696 9.16348 10.7085C9.12139 10.7214 9.07847 10.7323 9.03556 10.7406C8.99222 10.7493 8.94847 10.756 8.90472 10.7602C8.86097 10.7643 8.81722 10.7664 8.77305 10.7664C8.72888 10.7664 8.68513 10.7643 8.64138 10.7602C8.59763 10.756 8.55388 10.7493 8.51054 10.7406C8.46763 10.7323 8.42513 10.7214 8.38262 10.7085C8.34054 10.696 8.29929 10.681 8.25845 10.6643C8.21762 10.6473 8.17804 10.6285 8.13929 10.6081C8.10053 10.5873 8.06262 10.5648 8.02595 10.5402C7.98928 10.5156 7.95386 10.4893 7.92011 10.4614C7.88595 10.4335 7.85345 10.4039 7.82219 10.3727C7.79094 10.3418 7.76178 10.3093 7.73344 10.2752C7.70594 10.241 7.67969 10.2056 7.65511 10.1693C7.63052 10.1327 7.60802 10.0947 7.58719 10.056C7.56636 10.0168 7.54761 9.97724 7.53094 9.93641C7.51385 9.89599 7.49927 9.85433 7.48635 9.81224C7.47344 9.77016 7.46302 9.72766 7.45427 9.68432C7.44552 9.64099 7.43927 9.59765 7.4351 9.5539C7.43052 9.51015 7.42844 9.46598 7.42844 9.42182C7.42844 9.37765 7.43052 9.3339 7.4351 9.29015C7.43927 9.24639 7.44552 9.20306 7.45427 9.15973C7.46302 9.11681 7.47344 9.07389 7.48635 9.03181C7.49927 8.98972 7.51385 8.94805 7.53094 8.90722C7.54761 8.8668 7.56636 8.82722 7.58719 8.78847C7.60802 8.7493 7.63052 8.7118 7.65511 8.67513C7.67969 8.63846 7.70594 8.60305 7.73344 8.56888C7.76178 8.53513 7.79094 8.50263 7.82219 8.47138C7.85345 8.44013 7.88595 8.41054 7.92011 8.38262C7.95386 8.35471 7.98928 8.32846 8.02595 8.30429C8.06262 8.27971 8.10053 8.25679 8.13929 8.23595C8.17804 8.21512 8.21762 8.19679 8.25845 8.1797C8.29929 8.16262 8.34054 8.14804 8.38262 8.13512C8.42513 8.12262 8.46763 8.11179 8.51054 8.10303C8.55388 8.0947 8.59763 8.08803 8.64138 8.08387C8.68513 8.07928 8.72888 8.0772 8.77305 8.0772C8.81722 8.0772 8.86097 8.07928 8.90472 8.08387C8.94847 8.08803 8.99222 8.0947 9.03556 8.10303C9.07847 8.11179 9.12139 8.12262 9.16348 8.13512C9.20556 8.14804 9.24723 8.16262 9.28764 8.1797C9.32806 8.19679 9.36806 8.21512 9.40681 8.23595C9.44598 8.25679 9.48348 8.27971 9.52015 8.30429C9.55682 8.32846 9.59224 8.35471 9.6264 8.38262C9.66015 8.41054 9.69265 8.44013 9.72391 8.47138C9.75516 8.50263 9.78474 8.53513 9.81224 8.56888C9.84058 8.60305 9.86683 8.63846 9.89099 8.67513C9.91558 8.7118 9.93808 8.7493 9.95891 8.78847C9.97974 8.82722 9.9985 8.8668 10.0152 8.90722C10.0322 8.94805 10.0468 8.98972 10.0597 9.03181C10.0727 9.07389 10.0831 9.11681 10.0918 9.15973C10.1006 9.20306 10.1068 9.24639 10.1114 9.29015C10.1156 9.3339 10.1177 9.37806 10.1177 9.42182C10.1177 9.46557 10.1156 9.51015 10.1114 9.5539ZM18.5612 14.9324V19.1891H16.2586C16.2586 19.1891 16.2511 15.347 16.2511 15.1286C16.2511 14.9103 16.1495 14.3948 16.1495 14.3948C15.8807 13.4648 14.9436 13.6286 14.9436 13.6286C14.1444 13.6323 13.8903 14.2494 13.8903 14.2494C13.6361 14.7507 13.6707 15.7145 13.6707 15.7145V19.1891H11.3769V11.7581H13.5757V12.7836C13.6048 12.774 13.624 12.7606 13.624 12.7606C14.9119 10.8039 17.2849 11.8694 17.2849 11.8694C18.7283 12.5277 18.5612 14.9324 18.5612 14.9324Z" fill="#0E1013"/>
<path d="M30.8359 14.454V12.852H33.6979C34.7419 12.852 35.5219 12.648 36.0379 12.24C36.5659 11.832 36.8299 11.16 36.8299 10.224C36.8299 9.384 36.5839 8.754 36.0919 8.334C35.6119 7.914 34.8679 7.704 33.8599 7.704H30.8359V6.12H33.8959C34.6759 6.12 35.3659 6.21 35.9659 6.39C36.5779 6.57 37.0939 6.834 37.5139 7.182C37.9459 7.53 38.2699 7.968 38.4859 8.496C38.7139 9.012 38.8279 9.612 38.8279 10.296C38.8279 11.196 38.6239 11.958 38.2159 12.582C37.8079 13.194 37.2019 13.662 36.3979 13.986C35.6059 14.298 34.6219 14.454 33.4459 14.454H30.8359ZM29.6479 18V6.12H31.6099V18H29.6479ZM40.7895 18V13.122V8.64H42.4815L42.3915 11.88H42.6975C42.8055 11.148 42.9735 10.524 43.2015 10.008C43.4295 9.492 43.7415 9.102 44.1375 8.838C44.5335 8.562 45.0255 8.424 45.6135 8.424C45.7335 8.424 45.8655 8.43 46.0095 8.442C46.1535 8.454 46.3155 8.49 46.4955 8.55L46.4055 10.602C46.2255 10.53 46.0395 10.482 45.8475 10.458C45.6555 10.422 45.4815 10.404 45.3255 10.404C44.8455 10.404 44.4375 10.542 44.1015 10.818C43.7655 11.082 43.4835 11.454 43.2555 11.934C43.0395 12.402 42.8715 12.948 42.7515 13.572V18H40.7895ZM52.1704 18.234C51.2704 18.234 50.4724 18.042 49.7764 17.658C49.0804 17.274 48.5344 16.716 48.1384 15.984C47.7544 15.252 47.5624 14.352 47.5624 13.284C47.5624 12.192 47.7664 11.286 48.1744 10.566C48.5824 9.846 49.1284 9.306 49.8124 8.946C50.5084 8.586 51.2884 8.406 52.1524 8.406C53.0404 8.406 53.8324 8.592 54.5284 8.964C55.2244 9.336 55.7704 9.888 56.1664 10.62C56.5744 11.352 56.7784 12.264 56.7784 13.356C56.7784 14.436 56.5744 15.342 56.1664 16.074C55.7704 16.794 55.2244 17.334 54.5284 17.694C53.8324 18.054 53.0464 18.234 52.1704 18.234ZM52.2424 16.686C52.7824 16.686 53.2444 16.56 53.6284 16.308C54.0124 16.056 54.3064 15.684 54.5104 15.192C54.7144 14.7 54.8164 14.112 54.8164 13.428C54.8164 12.72 54.7084 12.114 54.4924 11.61C54.2764 11.094 53.9644 10.698 53.5564 10.422C53.1604 10.146 52.6744 10.008 52.0984 10.008C51.5824 10.008 51.1264 10.134 50.7304 10.386C50.3464 10.626 50.0524 10.992 49.8484 11.484C49.6444 11.964 49.5424 12.552 49.5424 13.248C49.5424 14.34 49.7824 15.186 50.2624 15.786C50.7424 16.386 51.4024 16.686 52.2424 16.686ZM59.6681 18V11.61H58.0481V10.098L60.4421 10.224V9.9C60.1061 9.792 59.8241 9.636 59.5961 9.432C59.3801 9.216 59.2121 8.97 59.0921 8.694C58.9841 8.406 58.9301 8.1 58.9301 7.776C58.9301 7.272 59.0501 6.834 59.2901 6.462C59.5301 6.078 59.8661 5.784 60.2981 5.58C60.7421 5.364 61.2581 5.256 61.8461 5.256C62.3381 5.256 62.7821 5.322 63.1781 5.454C63.5741 5.574 63.8981 5.736 64.1501 5.94L63.9701 7.74C63.7181 7.536 63.4241 7.368 63.0881 7.236C62.7521 7.104 62.4221 7.038 62.0981 7.038C61.7141 7.038 61.3961 7.158 61.1441 7.398C60.9041 7.626 60.7841 7.986 60.7841 8.478C60.7841 8.778 60.8321 9.03 60.9281 9.234C61.0241 9.438 61.1501 9.606 61.3061 9.738C61.4621 9.858 61.6181 9.954 61.7741 10.026H64.0241V11.61H61.5761V18H59.6681ZM65.8031 18V8.64H67.7471V18H65.8031ZM66.7751 7.074C66.3551 7.074 66.0371 6.99 65.8211 6.822C65.6051 6.642 65.4971 6.378 65.4971 6.03C65.4971 5.694 65.6051 5.436 65.8211 5.256C66.0371 5.076 66.3551 4.986 66.7751 4.986C67.2071 4.986 67.5311 5.076 67.7471 5.256C67.9631 5.436 68.0711 5.694 68.0711 6.03C68.0711 6.378 67.9631 6.642 67.7471 6.822C67.5311 6.99 67.2071 7.074 66.7751 7.074ZM70.4613 18V5.31H72.3873V18H70.4613ZM79.2064 18.234C78.4624 18.234 77.8024 18.126 77.2264 17.91C76.6504 17.682 76.1644 17.364 75.7684 16.956C75.3724 16.536 75.0724 16.038 74.8684 15.462C74.6644 14.874 74.5624 14.214 74.5624 13.482C74.5624 12.75 74.6644 12.078 74.8684 11.466C75.0724 10.842 75.3604 10.302 75.7324 9.846C76.1164 9.39 76.5844 9.036 77.1364 8.784C77.7004 8.532 78.3364 8.406 79.0444 8.406C79.7044 8.406 80.2924 8.514 80.8084 8.73C81.3364 8.946 81.7804 9.276 82.1404 9.72C82.5004 10.152 82.7704 10.698 82.9504 11.358C83.1304 12.006 83.1964 12.768 83.1484 13.644L75.8224 13.698V12.474L81.9964 12.42L81.3124 13.176C81.3844 12.456 81.3244 11.862 81.1324 11.394C80.9404 10.926 80.6644 10.578 80.3044 10.35C79.9444 10.122 79.5304 10.008 79.0624 10.008C78.5344 10.008 78.0724 10.146 77.6764 10.422C77.2924 10.686 76.9924 11.076 76.7764 11.592C76.5604 12.108 76.4524 12.726 76.4524 13.446C76.4524 14.526 76.6924 15.342 77.1724 15.894C77.6524 16.434 78.3364 16.704 79.2244 16.704C79.5964 16.704 79.9144 16.662 80.1784 16.578C80.4424 16.482 80.6644 16.362 80.8444 16.218C81.0244 16.062 81.1684 15.882 81.2764 15.678C81.3964 15.462 81.4924 15.24 81.5644 15.012L83.2744 15.408C83.1664 15.852 82.9984 16.248 82.7704 16.596C82.5544 16.932 82.2784 17.226 81.9424 17.478C81.6064 17.718 81.2104 17.904 80.7544 18.036C80.3104 18.168 79.7944 18.234 79.2064 18.234Z" fill="#0E1013"/>
</svg>
